<?xml version="1.0" encoding="utf-8"?><svg xmlns="http://www.w3.org/2000/svg" xmlns:xlink="http://www.w3.org/1999/xlink"><symbol viewBox="0 0 10 5" id="arrow_down" xmlns="http://www.w3.org/2000/svg"><defs><clipPath id="aa"><path d="M0 0h10v5H0z"/></clipPath></defs><g clip-path="url(#aa)"><path d="M8.86.48L5 4.33 1.14.48h.28L5 4 8.58.48z"/><path d="M10 0L5 5 0 0h1.61L5 3.36 8.39 0z"/></g></symbol><symbol viewBox="0 0 20 16" id="arrow_right" xmlns="http://www.w3.org/2000/svg"><path d="M1 9h15.34l-6 5.25a1 1 0 00-.33.68 1 1 0 00.24.73 1 1 0 00.68.34 1 1 0 00.73-.25l8-7a.81.81 0 00.17-.24s0-.05.06-.09A.9.9 0 0020 8a.93.93 0 00-.09-.4.47.47 0 00-.06-.09 1.31 1.31 0 00-.17-.24l-8-7a1.17 1.17 0 00-.34-.2 1 1 0 00-.39 0 1.13 1.13 0 00-.37.1.92.92 0 00-.31.24 1 1 0 00-.25.73 1 1 0 00.34.68l6 5.25H1A1 1 0 000 8a1 1 0 00.29.71A1 1 0 001 9z"/></symbol><symbol viewBox="0 0 32 32" id="check" xmlns="http://www.w3.org/2000/svg"><path d="M26.664 6.27a.829.829 0 00-1.177 0L13.088 18.611a.826.826 0 01-1.178 0l-5.433-5.532a.825.825 0 00-1.177 0l-2.401 2.158a.83.83 0 00-.246.583c0 .215.087.44.247.603l5.478 5.749c.324.328.855.861 1.178 1.186l2.355 2.374a.834.834 0 001.178 0L29.019 9.83a.846.846 0 000-1.188l-2.356-2.373z"/></symbol><symbol viewBox="0 0 45.437 45.437" id="empty" xmlns="http://www.w3.org/2000/svg"/><symbol viewBox="0 0 510 510" id="linkedin" xmlns="http://www.w3.org/2000/svg"><path d="M459 0H51A51.15 51.15 0 000 51v408a51.15 51.15 0 0051 51h408a51.15 51.15 0 0051-51V51a51.15 51.15 0 00-51-51zM153 433.5H76.5V204H153zm-38.25-272.85a45.9 45.9 0 1145.9-45.9 45.71 45.71 0 01-45.9 45.9zM433.5 433.5H357V298.35c0-20.4-17.85-38.25-38.25-38.25S280.5 278 280.5 298.35V433.5H204V204h76.5v30.6c12.75-20.4 40.8-35.7 63.75-35.7 48.45 0 89.25 40.8 89.25 89.25z"/></symbol><symbol viewBox="0 0 512 416" id="twitter" xmlns="http://www.w3.org/2000/svg"><path d="M512 49.25a218.64 218.64 0 01-60.48 16.57 104.36 104.36 0 0046.18-58 210 210 0 01-66.56 25.41A105 105 0 00249.57 105a108 108 0 002.43 23.93C164.74 124.67 87.52 82.85 35.65 19.14A105 105 0 0067.9 159.42a103.69 103.69 0 01-47.42-12.92v1.15a105.43 105.43 0 0084.1 103.13 104.65 104.65 0 01-27.52 3.46 92.77 92.77 0 01-19.88-1.79c13.6 41.57 52.2 72.13 98.08 73.12a210.93 210.93 0 01-130.14 44.77A197.72 197.72 0 010 368.9 295.54 295.54 0 00161 416c193.16 0 298.76-160 298.76-298.69 0-4.64-.16-9.12-.39-13.57A209.29 209.29 0 00512 49.25z"/></symbol></svg>